<svg width="61" height="61" viewBox="0 0 61 61" fill="none" xmlns="http://www.w3.org/2000/svg">
<rect x="0.864746" y="0.346924" width="60" height="60" rx="7.47559" fill="#121316"/>
<path fill-rule="evenodd" clip-rule="evenodd" d="M46.5516 17.8683C49.1195 21.2791 50.6737 25.4964 50.7663 30.0725C53.8745 30.3247 56.3183 32.9271 56.3183 36.1003C56.3183 39.4404 53.6106 42.1481 50.2705 42.1481C49.3286 42.1481 48.4371 41.9328 47.6423 41.5487C43.9369 47.5439 37.3042 51.5386 29.7386 51.5386C19.1962 51.5386 10.4654 43.7819 8.94201 33.6642C6.85789 32.7095 5.41016 30.6053 5.41016 28.1629C5.41016 25.181 7.56833 22.703 10.4079 22.2059C12.5746 17.1668 16.654 13.1442 21.7322 11.052C23.1968 10.3932 32.6885 6.43503 44.9871 8.55329C46.5623 8.82423 47.3499 10.6137 46.5245 11.9809C45.4912 13.6821 45.403 15.8244 46.3733 17.5634C46.43 17.6655 46.489 17.7676 46.5516 17.8683Z" fill="url(#paint0_radial_3539_14893)"/>
<path d="M19.8031 21.1919L21.3395 23.1326L19.0182 24.1396" stroke="black" stroke-linecap="round" stroke-linejoin="round"/>
<path d="M26.6272 26.7543C27.4489 27.0416 28.4277 26.3804 28.8133 25.2774C29.1989 24.1745 28.8453 23.0475 28.0236 22.7602C27.2018 22.4729 26.223 23.1341 25.8374 24.237C25.4518 25.34 25.8054 26.467 26.6272 26.7543Z" fill="black"/>
<path d="M21.5757 31.8457C23.1556 32.1569 24.6858 31.3292 25.3632 29.9343C25.466 29.7167 25.3466 29.4613 25.1107 29.4148L19.2206 28.2511C18.9847 28.2046 18.7752 28.3963 18.7935 28.6412C18.8953 30.1906 19.9951 31.5417 21.575 31.853L21.5757 31.8457Z" fill="black"/>
<ellipse cx="29.9644" cy="54.9824" rx="9.07672" ry="2.50923" fill="url(#paint1_linear_3539_14893)"/>
<defs>
<radialGradient id="paint0_radial_3539_14893" cx="0" cy="0" r="1" gradientUnits="userSpaceOnUse" gradientTransform="translate(21.3079 -22.344) rotate(85.6011) scale(78.9602 136.626)">
<stop stop-color="white"/>
<stop offset="0.605729" stop-color="#E8FF8A"/>
<stop offset="0.895" stop-color="#A5FFC1"/>
</radialGradient>
<linearGradient id="paint1_linear_3539_14893" x1="29.9644" y1="52.4731" x2="29.9644" y2="56.5439" gradientUnits="userSpaceOnUse">
<stop stop-color="#A5FFC2" stop-opacity="0.25"/>
<stop offset="1" stop-color="#694DC5" stop-opacity="0"/>
</linearGradient>
</defs>
</svg>
