<svg width="33" height="33" viewBox="0 0 33 33" fill="none" xmlns="http://www.w3.org/2000/svg">
<path d="M26.6669 3.92805C26.8784 4.12173 27.0859 4.31937 27.2934 4.51701C27.3382 4.55917 27.3837 4.60199 27.4298 4.64547C28.0958 5.27988 28.6867 5.93801 29.2164 6.691C29.252 6.74041 29.2876 6.7918 29.3251 6.84318C31.2639 9.59032 32.1829 12.7545 32.175 16.0945C32.175 16.1683 32.175 16.2428 32.175 16.3179C32.1711 17.5116 32.0979 18.6579 31.8094 19.8219C31.7916 19.8931 31.7738 19.9642 31.756 20.0374C30.837 23.6541 28.6373 26.9111 25.6214 29.1049C25.574 29.1405 25.5246 29.1741 25.4752 29.2116C23.0363 30.9647 20.0224 32.0833 17.0065 32.1999C16.9472 32.2019 16.8879 32.2038 16.8286 32.2058C14.2237 32.2908 11.6663 31.8283 9.31249 30.6939C9.24727 30.6623 9.18007 30.6307 9.11287 30.5971C5.26095 28.7136 2.27467 25.3854 0.865521 21.326C-0.531766 17.2033 -0.219501 12.792 1.67385 8.89267C3.59883 5.0605 6.99026 2.18885 11.022 0.775755C16.3819 -0.904151 22.4296 0.14332 26.6669 3.92805Z" fill="#6164F4"/>
<path d="M8.35901 8.66406C8.42818 8.66406 8.49735 8.66406 8.5685 8.66406C8.79973 8.66406 9.03097 8.66406 9.2622 8.66406C9.42822 8.66406 9.59423 8.66406 9.76025 8.66406C10.2109 8.66406 10.6615 8.66406 11.1121 8.66406C11.5844 8.66406 12.0568 8.66406 12.5271 8.66406C13.3197 8.66406 14.1122 8.66406 14.9047 8.66406C15.8198 8.66406 16.7348 8.66406 17.6519 8.66406C18.4384 8.66406 19.225 8.66406 20.0116 8.66406C20.482 8.66406 20.9504 8.66406 21.4208 8.66406C21.8615 8.66406 22.3042 8.66406 22.7449 8.66406C22.907 8.66406 23.0691 8.66406 23.2311 8.66406C23.4525 8.66406 23.6738 8.66406 23.8952 8.66406C23.9584 8.66406 24.0217 8.66406 24.0889 8.66406C24.6798 8.66999 25.2253 8.82415 25.6719 9.23721C26.2253 9.85976 26.2648 10.4685 26.2569 11.2768C26.2569 11.3914 26.2569 11.508 26.2569 11.6227C26.2569 11.933 26.2569 12.2452 26.2549 12.5555C26.2549 12.8816 26.2549 13.2077 26.2549 13.5338C26.2549 14.0813 26.2549 14.6287 26.251 15.1781C26.247 15.8106 26.247 16.443 26.247 17.0755C26.247 17.6861 26.247 18.2949 26.2451 18.9056C26.2451 19.1645 26.2451 19.4234 26.2451 19.6823C26.2451 19.9866 26.2451 20.293 26.2411 20.5973C26.2411 20.7614 26.2411 20.9254 26.2411 21.0914C26.2352 21.7219 26.1976 22.2338 25.8281 22.7654C25.7826 22.8089 25.7391 22.8524 25.6937 22.8978C25.6502 22.9413 25.6067 22.9867 25.5632 23.0322C24.745 23.6152 23.9387 23.552 22.9762 23.548C22.8082 23.548 22.6422 23.548 22.4742 23.548C22.0216 23.548 21.569 23.548 21.1164 23.548C20.6421 23.548 20.1678 23.548 19.6934 23.548C18.897 23.548 18.1025 23.548 17.306 23.548C16.387 23.548 15.468 23.548 14.547 23.548C13.7564 23.548 12.9659 23.548 12.1754 23.548C11.703 23.548 11.2326 23.548 10.7603 23.548C10.3176 23.548 9.8729 23.548 9.43019 23.548C9.26813 23.548 9.10607 23.548 8.94203 23.548C8.72068 23.548 8.49735 23.548 8.276 23.548C8.21276 23.548 8.14754 23.548 8.08232 23.55C7.44395 23.5401 6.92812 23.2753 6.46565 22.8365C5.98144 22.1468 5.89053 21.4966 5.90041 20.6724C5.90041 20.5598 5.90041 20.4471 5.89844 20.3345C5.89844 20.0321 5.89844 19.7297 5.89844 19.4273C5.89844 19.1091 5.89844 18.7909 5.89844 18.4727C5.89844 17.9391 5.89844 17.4055 5.90239 16.8719C5.90634 16.2572 5.90634 15.6406 5.90239 15.026C5.90239 14.4311 5.90239 13.8362 5.90239 13.2413C5.90239 12.9903 5.90239 12.7373 5.90239 12.4863C5.90239 12.1899 5.90239 11.8915 5.90634 11.595C5.90634 11.4349 5.90634 11.2748 5.90634 11.1167C5.91622 10.4112 6.04271 9.83209 6.52692 9.29452C7.0467 8.7945 7.66135 8.66406 8.35703 8.66999L8.35901 8.66406Z" fill="#F2F2F2"/>
<path d="M8.14062 12.2109C8.64262 12.5878 8.98058 12.848 9.1545 12.9916C9.21181 13.039 9.26913 13.0865 9.32842 13.1359C9.38771 13.1853 9.44502 13.2327 9.50629 13.2841C9.6308 13.3869 9.75729 13.4916 9.8818 13.5944C9.94109 13.6438 10.0024 13.6932 10.0636 13.7446C10.283 13.9264 10.5024 14.1063 10.7237 14.2861C10.7949 14.3454 10.868 14.4047 10.9411 14.464C11.0103 14.5213 11.0795 14.5766 11.1506 14.6359C11.7574 15.132 12.3621 15.63 12.9669 16.1281C13.376 16.466 13.7851 16.802 14.1962 17.138C14.3503 17.2645 14.5025 17.391 14.6567 17.5175C14.7384 17.5847 14.8201 17.6525 14.9018 17.721C14.9749 17.7803 15.046 17.8416 15.1211 17.9029C15.4947 18.1934 15.7457 18.3436 16.2299 18.3574C16.7635 18.2408 17.1765 17.8534 17.5738 17.4997C17.6766 17.4107 17.7793 17.3198 17.8821 17.2309C17.9315 17.1874 17.9809 17.1439 18.0323 17.0985C18.2853 16.8811 18.5481 16.6736 18.809 16.468C19.4889 15.9285 20.1569 15.3692 20.8269 14.8178C21.236 14.4798 21.6471 14.1438 22.0582 13.8078C22.2064 13.6853 22.3566 13.5628 22.5048 13.4422C23.4337 12.678 23.941 12.2959 24.0266 12.2959V21.3279H8.14062V12.2109Z" fill="#6164F4"/>
<path d="M10.0645 10.875H22.1914C21.9444 11.1853 21.7764 11.375 21.476 11.6063C21.4022 11.6642 21.3271 11.7229 21.2507 11.7821C21.1756 11.8414 21.0985 11.9007 21.0214 11.962C20.8791 12.0766 20.7388 12.1913 20.5985 12.3079C20.5234 12.3711 20.4463 12.4324 20.3672 12.4976C19.9799 12.8158 19.5925 13.136 19.2032 13.4561C18.6439 13.9166 18.0806 14.3771 17.5193 14.8356C17.4403 14.9002 17.3599 14.9661 17.2782 15.0333C17.2031 15.0945 17.128 15.1558 17.0489 15.219C16.8632 15.3732 16.6873 15.5333 16.5094 15.6973C16.3381 15.8304 16.2017 15.8956 16.1003 15.893C15.8374 15.7784 15.6398 15.5945 15.4263 15.4048C15.0429 15.0708 14.6536 14.7487 14.2504 14.4384C13.7978 14.0866 13.361 13.721 12.9282 13.3435C12.5942 13.0549 12.2523 12.7782 11.9045 12.5095C11.4835 12.1834 11.0704 11.8474 10.6653 11.5015C10.6139 11.458 10.5645 11.4165 10.5111 11.3711C10.2753 11.1682 10.1257 11.0041 10.0625 10.879L10.0645 10.875Z" fill="#6164F4"/>
</svg>
