<?xml version="1.0" encoding="UTF-8"?>
<svg width="40px" height="40px" viewBox="0 0 40 40" version="1.1" xmlns="http://www.w3.org/2000/svg" xmlns:xlink="http://www.w3.org/1999/xlink">
    <title>logo-icon</title>
    <g id="logo-icon" stroke="none" stroke-width="1" fill="none" fill-rule="evenodd">
        <g id="编组-2" transform="translate(0.000000, 0.000000)">
            <g id="编组-15备份" fill="#1C54E8">
                <path d="M37.2459054,24.3333661 L39.5292333,24.3335715 C37.5493963,33.2958254 29.5576201,40 20,40 C10.4423799,40 2.45060367,33.2958254 0.470766691,24.3335715 L2.75409458,24.3333661 C4.68871653,32.0573405 11.6763184,37.7777778 20,37.7777778 C28.3236816,37.7777778 35.3112835,32.0573405 37.2459054,24.3333661 Z M19.7777778,11.8888889 C21.2505371,11.8888889 22.4444444,13.0827962 22.4444444,14.5555556 C22.4444444,15.6512879 21.7835745,16.5926658 20.8386819,17.0028419 L20.8861112,31.7960792 C21.8056159,32.2168188 22.4444444,33.1449173 22.4444444,34.2222222 C22.4444444,35.6949816 21.2505371,36.8888889 19.7777778,36.8888889 C18.3050184,36.8888889 17.1111111,35.6949816 17.1111111,34.2222222 C17.1111111,33.1260238 17.7725435,32.1843111 18.7180797,31.7744127 L18.6704504,16.9821587 C17.7504057,16.5616358 17.1111111,15.6332533 17.1111111,14.5555556 C17.1111111,13.0827962 18.3050184,11.8888889 19.7777778,11.8888889 Z M19.7777778,33.3333333 C19.286858,33.3333333 18.8888889,33.7313024 18.8888889,34.2222222 C18.8888889,34.713142 19.286858,35.1111111 19.7777778,35.1111111 C20.2686976,35.1111111 20.6666667,34.713142 20.6666667,34.2222222 C20.6666667,33.7313024 20.2686976,33.3333333 19.7777778,33.3333333 Z M24.5555556,3.77777778 C26.0279551,3.77777778 27.2222222,4.97132411 27.2222222,6.44444444 C27.2222222,7.5221706 26.5830147,8.45026039 25.6633315,8.87082867 L25.67,19.88 L28.0992855,19.8801853 C28.7046745,19.8801853 29.1973821,19.3975613 29.2139101,18.7959448 L29.2143385,18.7647224 L29.2143043,15.3100953 C28.3006642,14.8871222 27.6666667,13.9622139 27.6666667,12.8888889 C27.6666667,11.4157686 28.8609338,10.2222222 30.3333333,10.2222222 C31.8057328,10.2222222 33,11.4157686 33,12.8888889 C33,13.965279 32.3623763,14.8924035 31.4445284,15.3137066 L31.4444444,18.7647224 C31.4444444,20.5944003 29.9765696,22.0811115 28.1546039,22.1106628 L28.0992855,22.1111111 L25.6714,22.111 L25.6747399,27.4072862 L27.1400354,29.4100819 C27.3443869,29.3599296 27.5579835,29.3333333 27.7777778,29.3333333 C29.2501773,29.3333333 30.4444444,30.5268797 30.4444444,32 C30.4444444,33.4731203 29.2501773,34.6666667 27.7777778,34.6666667 C26.3053783,34.6666667 25.1111111,33.4731203 25.1111111,32 C25.1111111,31.5650038 25.2152459,31.1543852 25.399927,30.7916771 L23.6712316,28.4285487 C23.5401167,28.2493191 23.4658123,28.0350928 23.4574026,27.8136547 L23.4566002,27.7720573 L23.4449637,8.86953897 C22.5267919,8.4483652 21.8888889,7.52107032 21.8888889,6.44444444 C21.8888889,4.97132411 23.0831561,3.77777778 24.5555556,3.77777778 Z M14.8888889,7.11111111 C16.3612116,7.11111111 17.5555556,8.3045801 17.5555556,9.77777778 C17.5555556,10.8543816 16.9177046,11.7815936 15.9996487,12.2027923 L15.9878904,27.7920812 C15.9877241,28.0059204 15.9263924,28.2148893 15.811651,28.3941491 L15.789513,28.4274061 L14.2839018,30.6037651 C14.4578581,30.9579692 14.5555556,31.3564326 14.5555556,31.7777778 C14.5555556,33.2509755 13.3612116,34.4444444 11.8888889,34.4444444 C10.4165662,34.4444444 9.22222222,33.2509755 9.22222222,31.7777778 C9.22222222,30.3045801 10.4165662,29.1111111 11.8888889,29.1111111 C12.1219085,29.1111111 12.3479652,29.1410055 12.5634263,29.197172 L13.7780719,27.4413442 L13.78,24.8888 L11.3451589,24.8888889 L11.2898406,24.8884432 C9.48930974,24.8594125 8.03458724,23.415729 8.00060768,21.6263579 L8,21.5623066 L7.99994921,17.7581634 C7.08210913,17.3368784 6.44444444,16.40978 6.44444444,15.3333333 C6.44444444,13.8601357 7.63878841,12.6666667 9.11111111,12.6666667 C10.5834338,12.6666667 11.7777778,13.8601357 11.7777778,15.3333333 C11.7777778,16.4067147 11.1437395,17.3315973 10.230107,17.7545522 L10.2301059,21.5623066 L10.2305343,21.5933442 C10.2466492,22.1764484 10.7154321,22.6471051 11.2999717,22.6702735 L11.3451589,22.6711674 L13.7816,22.671 L13.7897216,12.2080773 C12.8831859,11.797422 12.2470156,10.8944347 12.2229304,9.83985654 L12.2222222,9.77777778 C12.2222222,8.3045801 13.4165662,7.11111111 14.8888889,7.11111111 Z M27.7777778,31.1111111 C27.2865014,31.1111111 26.8888889,31.5094388 26.8888889,32 C26.8888889,32.4905612 27.2865014,32.8888889 27.7777778,32.8888889 C28.2690541,32.8888889 28.6666667,32.4905612 28.6666667,32 C28.6666667,31.5094388 28.2690541,31.1111111 27.7777778,31.1111111 Z M11.8888889,30.8888889 C11.3975364,30.8888889 11,31.2872937 11,31.7777778 C11,32.2682619 11.3975364,32.6666667 11.8888889,32.6666667 C12.3802414,32.6666667 12.7777778,32.2682619 12.7777778,31.7777778 C12.7777778,31.2872937 12.3802414,30.8888889 11.8888889,30.8888889 Z M20,0 C30.2563823,0 38.7095919,7.72030025 39.8653323,17.6666044 L37.6260123,17.6666044 C36.4833503,8.95089235 29.0274577,2.22222222 20,2.22222222 C10.9725423,2.22222222 3.51664969,8.95089235 2.3739877,17.6666044 L0.134667676,17.6666044 C1.29040813,7.72030025 9.7436177,0 20,0 Z M9.11111111,14.4444444 C8.61975863,14.4444444 8.22222222,14.8428492 8.22222222,15.3333333 C8.22222222,15.8238174 8.61975863,16.2222222 9.11111111,16.2222222 C9.60246359,16.2222222 10,15.8238174 10,15.3333333 C10,14.8428492 9.60246359,14.4444444 9.11111111,14.4444444 Z M19.7777778,13.6666667 C19.286858,13.6666667 18.8888889,14.0646358 18.8888889,14.5555556 C18.8888889,15.0464753 19.286858,15.4444444 19.7777778,15.4444444 C20.2686976,15.4444444 20.6666667,15.0464753 20.6666667,14.5555556 C20.6666667,14.0646358 20.2686976,13.6666667 19.7777778,13.6666667 Z M30.3333333,12 C29.842057,12 29.4444444,12.3983277 29.4444444,12.8888889 C29.4444444,13.3794501 29.842057,13.7777778 30.3333333,13.7777778 C30.8246097,13.7777778 31.2222222,13.3794501 31.2222222,12.8888889 C31.2222222,12.3983277 30.8246097,12 30.3333333,12 Z M14.8888889,8.88888889 C14.3975364,8.88888889 14,9.28729366 14,9.77777778 C14,10.2682619 14.3975364,10.6666667 14.8888889,10.6666667 C15.3802414,10.6666667 15.7777778,10.2682619 15.7777778,9.77777778 C15.7777778,9.28729366 15.3802414,8.88888889 14.8888889,8.88888889 Z M24.5555556,5.55555556 C24.0642792,5.55555556 23.6666667,5.95388327 23.6666667,6.44444444 C23.6666667,6.93500562 24.0642792,7.33333333 24.5555556,7.33333333 C25.0468319,7.33333333 25.4444444,6.93500562 25.4444444,6.44444444 C25.4444444,5.95388327 25.0468319,5.55555556 24.5555556,5.55555556 Z" id="形状"></path>
            </g>
            <path d="M0.000303290339,19.8886793 L2.2232,19.8888 L2.22222222,20 C2.22222222,20.7143658 2.26435689,21.4188905 2.34627662,22.1112245 L0.110116235,22.1113184 C0.0464203777,21.5042216 0.00988452826,20.8890372 0.00174581366,20.2670022 L-1.03028697e-14,20 C-1.03028697e-14,19.9628694 0.000101183677,19.9257624 0.000303290339,19.8886793 Z" id="路径" fill="#FFD000"></path>
            <path d="M37.7774365,19.8886714 L39.999,19.8888 L40,20 C40,20.7131051 39.962679,21.4174935 39.8898838,22.1113184 L37.6537234,22.1112245 C37.7265409,21.4958165 37.7679233,20.8707763 37.7762205,20.2377542 L37.7777778,20 C37.7777778,19.9628638 37.7776639,19.9257541 37.7774365,19.8886714 Z" id="路径" fill="#FFD000"></path>
        </g>
    </g>
</svg> 