<svg width="85" height="86" viewBox="0 0 85 86" fill="none" xmlns="http://www.w3.org/2000/svg">
<rect x="-0.5" y="-0.5" width="85" height="84" rx="19.5" transform="matrix(-4.34665e-08 -1 -1 4.39576e-08 84 85)" fill="white" stroke="#DDE1F8"/>
<path d="M66.4431 59.3311C65.0439 56.0712 62.9664 53.1548 60.3522 50.7806C58.8336 55.547 55.7867 59.6647 51.6939 62.482C47.6012 65.2992 42.6963 66.655 37.756 66.3346C32.8157 66.0142 28.1221 64.036 24.4185 60.7131C20.7148 57.3902 18.2127 52.9126 17.3082 47.9892C18.3747 54.4199 21.6597 60.2602 26.5798 64.4729C31.4999 68.6857 37.7367 70.9983 44.1827 71C48.5463 71.0036 52.8468 69.9453 56.7211 67.9144C60.5954 65.8835 63.9299 62.9396 66.4431 59.3311Z" fill="url(#paint0_radial_12196_39175)"/>
<path d="M67 28.3979C63.7744 23.4457 59.0558 19.678 53.5451 17.6543C48.0343 15.6307 42.0252 15.459 36.4103 17.1647C30.7954 18.8705 25.8741 22.3628 22.3773 27.1229C18.8805 31.883 16.9947 37.657 17 43.5875V43.7535C17.0597 38.3362 19.0494 33.1225 22.6037 29.0699C26.1581 25.0173 31.0385 22.3979 36.3486 21.6927C41.6587 20.9876 47.0421 22.244 51.51 25.2313C55.978 28.2185 59.2306 32.7361 60.6704 37.9543C63.4945 35.3172 65.6632 32.0429 67 28.3979Z" fill="url(#paint1_radial_12196_39175)"/>
<path d="M60.6704 37.9577C59.2306 32.7395 55.978 28.2219 51.51 25.2347C47.0421 22.2474 41.6587 20.991 36.3486 21.6961C31.0385 22.4013 26.1581 25.0207 22.6037 29.0733C19.0494 33.1259 17.0597 38.3396 17 43.7569C17.0078 45.2266 17.1325 46.6933 17.3729 48.1428C18.2781 53.066 20.7807 57.5432 24.4847 60.8655C28.1887 64.1878 32.8824 66.1654 37.8226 66.4852C42.7629 66.805 47.6675 65.4487 51.7599 62.6311C55.8523 59.8135 58.8987 55.6956 60.4168 50.9292L60.3572 50.8789C59.0151 54.2357 56.5688 57.0211 53.4315 58.7645C50.2943 60.5078 46.6582 61.1024 43.1377 60.4477C39.6172 59.793 36.428 57.9292 34.1088 55.1711C31.7896 52.413 30.4825 48.9297 30.4084 45.3095C30.3343 41.6894 31.4977 38.1543 33.7021 35.3015C35.9064 32.4486 39.0166 30.4528 42.5073 29.6513C45.9981 28.8497 49.6553 29.2915 52.8612 30.9021C56.0672 32.5126 58.6253 35.1931 60.1036 38.4908C60.2975 38.3198 60.4865 38.1488 60.6704 37.9577Z" fill="url(#paint2_radial_12196_39175)"/>
<defs>
<radialGradient id="paint0_radial_12196_39175" cx="0" cy="0" r="1" gradientUnits="userSpaceOnUse" gradientTransform="translate(20.7184 55.875) rotate(5.0468) scale(61.6226 28.8533)">
<stop stop-color="#8E6BF5"/>
<stop offset="0.539514" stop-color="#FF6EC3"/>
<stop offset="0.91516" stop-color="#FFE09B"/>
<stop offset="1" stop-color="#FF7061"/>
</radialGradient>
<radialGradient id="paint1_radial_12196_39175" cx="0" cy="0" r="1" gradientUnits="userSpaceOnUse" gradientTransform="translate(-8.51185 18.4239) rotate(2.92795) scale(86.8301 48.1926)">
<stop stop-color="#8E6BF5"/>
<stop offset="0.539514" stop-color="#FF6EC3"/>
<stop offset="0.9" stop-color="#FFE09B"/>
<stop offset="1" stop-color="#FF7061"/>
</radialGradient>
<radialGradient id="paint2_radial_12196_39175" cx="0" cy="0" r="1" gradientUnits="userSpaceOnUse" gradientTransform="translate(27.2353 21.5046) scale(57.9998 59.7992)">
<stop stop-color="#8E6BF5"/>
<stop offset="0.539514" stop-color="#FF6EC3"/>
<stop offset="0.9" stop-color="#FFE09B"/>
<stop offset="1" stop-color="#FF7061"/>
</radialGradient>
</defs>
</svg>
