<svg xmlns="http://www.w3.org/2000/svg"
     fill="currentColor"
     viewBox="0 0 95.469970703125 95.9996337890625"
>
    <path d="M15.95,95.81C16.8826,96.1954,17.9554,95.9824,18.67,95.27L31.75,82.17L43.95,82.17C49.8468,82.1866,54.639,77.4168,54.65,71.52L54.65,65L57.53,65L73.1,80.57C73.8151,81.2869,74.8919,81.5016,75.8273,81.1139C76.7627,80.7262,77.3718,79.8126,77.37,78.8L77.37,65L83.37,65C90.0504,64.9945,95.4645,59.5804,95.47,52.9L95.47,12.1C95.4645,5.43133,90.0686,0.0220332,83.4,0L32.91,0C26.2296,0.00551486,20.8155,5.41964,20.81,12.1L20.81,29.87L10.66,29.87C4.77493,29.8755,0.00551319,34.6449,0,40.53L0,71.53C0.0165231,77.4073,4.78272,82.1645,10.66,82.17L14.41,82.17L14.41,93.5C14.4093,94.5105,15.017,95.422,15.95,95.81ZM25.81,12.1C25.8155,8.18106,28.9911,5.00551,32.91,5L83.4,5C87.3189,5.00551,90.4945,8.18106,90.5,12.1L90.5,52.93C90.4945,56.8489,87.3189,60.0245,83.4,60.03L74.87,60.03C73.4893,60.03,72.37,61.1493,72.37,62.53L72.37,72.78L60.37,60.78C59.9013,60.2856,59.2512,60.0039,58.57,60L32.91,60C28.9911,59.9945,25.8155,56.8189,25.81,52.9L25.81,12.1ZM10.66,77.17C7.53407,77.17,5,74.6359,5,71.51L5,40.51C5,37.3841,7.53407,34.85,10.66,34.85L20.81,34.85L20.81,52.93C20.832,59.5986,26.2413,64.9945,32.91,65L49.65,65L49.65,71.48C49.65,74.6059,47.1159,77.14,43.99,77.14L30.75,77.14C30.0865,77.1388,29.4498,77.4014,28.98,77.87L19.4,87.44L19.4,79.64C19.4,78.2593,18.2807,77.14,16.9,77.14L10.66,77.17Z"/>
    <path d="M38.47999954223633,48.05999961853027L47.749999542236324,48.05999961853027C51.02299954223633,48.06219961853027,54.13989954223633,49.45879961853027,56.31999954223633,51.89999961853027C57.31399954223633,53.013499618530275,59.05599954223633,53.013499618530275,60.04999954223633,51.89999961853027C62.23009954223633,49.45879961853027,65.34699954223633,48.062099618530276,68.61999954223633,48.05999961853027L77.85999954223632,48.05999961853027C79.24069954223633,48.05999961853027,80.35999954223632,46.940699618530275,80.35999954223632,45.55999961853027L80.35999954223632,17.899999618530273C80.35999954223632,16.519289618530273,79.24069954223633,15.399999618530273,77.85999954223632,15.399999618530273L68.58999954223633,15.399999618530273C64.78409954223633,15.402851108530273,61.09609954223633,16.720509618530272,58.14999954223633,19.129999618530274C55.21459954223633,16.729179618530274,51.54219954223633,15.412048318530273,47.749999542236324,15.399999618530273L38.47999954223633,15.399999618530273C37.09928954223633,15.399999618530273,35.97999954223633,16.519289618530273,35.97999954223633,17.899999618530273L35.97999954223633,45.55999961853027C35.97999954223633,46.940699618530275,37.09928954223633,48.05999961853027,38.47999954223633,48.05999961853027ZM68.58999954223633,20.399999618530273L75.32999954223632,20.399999618530273L75.32999954223632,43.05999961853027L68.58999954223633,43.05999961853027C65.82069954223633,43.05019961853027,63.09349954223633,43.737999618530274,60.65999954223633,45.05999961853027L60.65999954223633,23.599999618530273C62.79319954223632,21.552789618530273,65.63339954223633,20.406669618530273,68.58999954223633,20.399999618530273ZM40.989999542236326,20.399999618530273L47.749999542236324,20.399999618530273C50.706599542236326,20.406669618530273,53.54679954223633,21.552789618530273,55.67999954223633,23.599999618530273L55.67999954223633,45.109999618530274C53.24649954223633,43.78799961853028,50.519299542236325,43.10019961853027,47.749999542236324,43.109999618530274L40.97999954223633,43.109999618530274L40.989999542236326,20.399999618530273Z"/>
</svg>
