<svg width="47" height="47" viewBox="0 0 47 47" fill="none" xmlns="http://www.w3.org/2000/svg">
<g id="brandtv_defaultimage_fill_48">
<path id="Union" fill-rule="evenodd" clip-rule="evenodd" d="M40.4054 17.6185C40.4615 18.192 40.5106 18.7655 40.5539 19.339C40.7258 21.6341 40.8029 23.9341 40.7854 26.2364C40.7772 27.3894 40.7398 28.5411 40.6767 29.6929C40.6439 30.2688 40.6042 30.8435 40.5574 31.4193C40.5329 31.7079 40.5071 31.9952 40.4802 32.2826L40.437 32.7142L40.4136 32.93L40.4019 33.0373C40.3984 33.0731 40.3949 33.1076 40.389 33.1506C40.3142 33.8051 40.1306 34.449 39.8547 35.0463C39.5776 35.6448 39.2058 36.1957 38.758 36.6738C37.8659 37.6336 36.6534 38.2798 35.3708 38.4885C35.347 38.492 35.3233 38.4957 35.2997 38.4994C35.2431 38.5083 35.1868 38.5172 35.1299 38.5231L34.8914 38.5481L34.4705 38.5827L33.6298 38.6482C33.0698 38.6912 32.5086 38.7281 31.9473 38.7639C30.8261 38.833 29.7025 38.8879 28.58 38.9308C26.334 39.0143 24.0868 39.05 21.8395 39.0274C19.5923 39.0047 17.3463 38.932 15.1014 38.8044C13.9789 38.7412 12.8577 38.6614 11.7364 38.5648L11.6312 38.5564L11.5786 38.5517L11.5189 38.5457C11.4382 38.5374 11.3576 38.529 11.2769 38.5183L11.036 38.4813L10.7975 38.4336C10.4807 38.3633 10.1685 38.2667 9.86683 38.1451C9.26235 37.9019 8.69879 37.5585 8.20188 37.134C7.20571 36.2875 6.49366 35.1 6.20604 33.8111C6.16862 33.6501 6.14056 33.488 6.11601 33.3246L6.08561 33.0802L6.06339 32.8644C6.03416 32.5771 6.00844 32.2897 5.98272 32.0024C5.93244 31.4277 5.88918 30.853 5.85411 30.2771C5.71146 27.976 5.67989 25.6701 5.7442 23.3689C5.80851 21.0678 5.96752 18.7738 6.21188 16.487C6.28204 15.8384 6.45391 15.1981 6.72166 14.6044C6.98824 14.0106 7.35069 13.4609 7.78915 12.9852C8.66372 12.0326 9.84812 11.3756 11.1074 11.1562C11.2652 11.13 11.423 11.1061 11.5821 11.093L11.7002 11.0823L11.8054 11.0751L12.0158 11.0596L12.8577 11.0036C13.4189 10.9678 13.9801 10.9392 14.5413 10.9106C15.2768 10.8748 16.0122 10.8462 16.7476 10.8224C16.6752 10.7306 16.6026 10.6387 16.5313 10.5458C16.1513 10.0498 15.783 9.54424 15.4194 9.03513L15.1493 8.65121L15.016 8.45805C15.0126 8.45314 15.0092 8.44823 15.0059 8.44332C14.9648 8.38398 14.9242 8.3252 14.8886 8.26133C14.8114 8.12421 14.753 7.97279 14.7191 7.80348C14.6863 7.63418 14.6735 7.44818 14.7167 7.22164C14.8991 6.25588 15.7889 5.61085 16.7324 5.7265C16.9569 5.75511 17.1265 5.82308 17.2749 5.90773C17.4223 5.99238 17.5462 6.09611 17.6503 6.21296C17.6976 6.26554 17.7393 6.32199 17.7812 6.37883C17.7859 6.38514 17.7906 6.39145 17.7952 6.39776L17.9344 6.58615L18.2091 6.96649C18.5728 7.4756 18.9305 7.98829 19.2766 8.51052C19.6227 9.03274 19.9594 9.56212 20.2821 10.101C20.4073 10.3109 20.53 10.5219 20.6516 10.7353C21.981 10.7187 23.3092 10.7139 24.6375 10.7198C25.0455 10.7222 25.4524 10.7258 25.8604 10.7306C25.9809 10.5195 26.1036 10.3097 26.2276 10.101C26.5503 9.56093 26.887 9.03274 27.2331 8.51052C27.5792 7.98829 27.937 7.4756 28.3006 6.96649L28.5753 6.58615L28.7145 6.39776C28.7192 6.39144 28.7238 6.38513 28.7285 6.37881C28.7704 6.32198 28.8121 6.26554 28.8595 6.21296C28.9635 6.09611 29.0875 5.99357 29.2348 5.90773C29.3833 5.82308 29.5528 5.75511 29.7773 5.7265C30.7349 5.60608 31.6106 6.27019 31.793 7.22164C31.8351 7.44699 31.8234 7.63298 31.7907 7.80348C31.7568 7.97279 31.6983 8.12421 31.6211 8.26133C31.5874 8.32256 31.5471 8.3809 31.5069 8.43894C31.5025 8.44531 31.4981 8.45168 31.4937 8.45805L31.3604 8.65121L31.0903 9.03513C30.7267 9.54424 30.3596 10.0498 29.9784 10.5458C29.9307 10.6076 29.8825 10.6688 29.834 10.7303C29.8124 10.7578 29.7908 10.7852 29.7691 10.8128C30.3023 10.8307 30.8366 10.851 31.3698 10.8748C32.4922 10.9261 33.6146 10.9893 34.7383 11.074L34.7909 11.0775L34.8493 11.0835L34.9686 11.0954C35.0471 11.1012 35.1234 11.1127 35.2007 11.1243L35.2071 11.1252L35.3264 11.1431L35.4445 11.1658C35.5228 11.1801 35.6011 11.1944 35.6795 11.2146C35.9916 11.2874 36.2991 11.3851 36.5961 11.508C37.1901 11.7524 37.7443 12.0993 38.2307 12.5238C39.2058 13.3703 39.9073 14.5483 40.1797 15.83C40.1985 15.9099 40.2125 15.9898 40.2265 16.0709L40.2476 16.1913L40.2639 16.3129L40.2803 16.4345C40.2837 16.4584 40.286 16.4794 40.2882 16.5001C40.2897 16.5146 40.2912 16.529 40.2932 16.5442L40.3166 16.7588C40.3481 17.045 40.3773 17.3323 40.4054 17.6185ZM37.2626 29.4985C37.3234 28.3849 37.3584 27.2785 37.3666 26.2102C37.383 24.0092 37.3093 21.7868 37.1457 19.606C37.1024 19.0457 37.0545 18.4912 37.003 17.9583C36.9773 17.6864 36.9492 17.4146 36.92 17.1475L36.8966 16.9329L36.899 16.952L36.8919 16.89L36.8721 16.741L36.851 16.6253L36.8382 16.5693C36.7259 16.0423 36.4254 15.5355 36.008 15.1731C35.7987 14.9907 35.5579 14.8404 35.3123 14.7391C35.1861 14.6866 35.0551 14.6449 34.9218 14.6139L34.8786 14.6032L34.7698 14.5829L34.6552 14.5662L34.5336 14.5543L34.4869 14.5507C33.4767 14.4744 32.4068 14.4112 31.2213 14.3575C29.1506 14.2657 26.9922 14.2157 24.6246 14.2049C24.2259 14.2037 23.8272 14.2025 23.4297 14.2025C21.4525 14.2025 19.6777 14.224 17.9975 14.2705C16.8727 14.2991 15.7655 14.3397 14.7132 14.3909C14.6256 14.3955 14.5356 14.4002 14.4436 14.405C14.0124 14.4274 13.5391 14.4521 13.0833 14.4815L12.2497 14.5376L11.9796 14.5567L11.8697 14.5674C11.8276 14.571 11.7621 14.5805 11.6826 14.5936C11.1623 14.6842 10.6537 14.9656 10.2784 15.3746C10.096 15.5713 9.94049 15.8074 9.82708 16.0601C9.71367 16.3105 9.63767 16.5907 9.60844 16.865C9.37109 19.0898 9.22026 21.311 9.15946 23.4679C9.09632 25.719 9.1314 27.9354 9.26352 30.0577C9.29743 30.6133 9.33835 31.163 9.38512 31.6936C9.4085 31.9642 9.43305 32.2349 9.46112 32.5067L9.47865 32.6784L9.49853 32.8334C9.51022 32.9085 9.52075 32.9693 9.53127 33.0134L9.53595 33.0373C9.65637 33.5822 9.96738 34.0996 10.3953 34.4633C10.6116 34.6493 10.8548 34.7959 11.1179 34.902C11.2407 34.9509 11.3681 34.9915 11.4967 35.0213L11.6218 35.0463L11.7411 35.0654L11.865 35.0785L12.0205 35.0916C13.0892 35.1834 14.1882 35.2621 15.2885 35.3241C17.441 35.4469 19.6555 35.5197 21.8711 35.5423C22.3049 35.5471 22.7398 35.5495 23.1736 35.5495C24.8748 35.5495 26.6508 35.5161 28.4502 35.4481C29.5446 35.4064 30.6507 35.3515 31.731 35.2848L31.7933 35.2808C32.2804 35.2495 32.8365 35.2139 33.3668 35.1727L34.2004 35.1071L34.5746 35.0761L34.7464 35.0582C34.7464 35.0582 34.8213 35.0475 34.8493 35.0427C35.3883 34.9509 35.9086 34.6719 36.2769 34.2749L36.2875 34.2642C36.4839 34.0555 36.6441 33.8182 36.7633 33.5595C36.8837 33.2996 36.9633 33.0182 36.9948 32.7464L37.0018 32.6868L37.0381 32.3505L37.079 31.9392L37.0823 31.9026C37.1058 31.6442 37.1291 31.3869 37.1503 31.1296C37.1936 30.5919 37.2322 30.0422 37.2626 29.4985Z" fill="url(#paint0_linear_553_11987)"/>
<path id="Union_2" fill-rule="evenodd" clip-rule="evenodd" d="M11.8684 21.5567H15.8866C15.4193 21.9046 15.0391 22.363 14.7847 22.8932H11.4036C11.5126 22.4275 11.6693 21.9802 11.8684 21.5567ZM20.1914 21.5567C20.6587 21.9046 21.0389 22.363 21.2934 22.8932H24.6743C24.7423 23.1834 24.7916 23.4808 24.8212 23.784H21.585C21.6256 24.0006 21.6468 24.224 21.6468 24.4524C21.6468 24.6804 21.6256 24.9035 21.5851 25.1199H24.8213C24.7918 25.4231 24.7425 25.7204 24.6746 26.0107H21.2938C21.0395 26.5408 20.6596 26.9991 20.1926 27.3471H24.21C24.0641 27.6576 23.8955 27.9552 23.7063 28.2379H12.3717C12.7031 28.7331 13.0977 29.1825 13.544 29.5744H22.5341C22.7906 29.3491 23.0301 29.1048 23.2503 28.8438C24.5003 30.3258 26.371 31.2671 28.4616 31.2671C32.2252 31.2671 35.2763 28.2161 35.2763 24.4525C35.2763 20.6888 32.2252 17.6378 28.4616 17.6378C26.3711 17.6378 24.5004 18.5791 23.2504 20.0611C23.03 19.7998 22.7904 19.5554 22.5337 19.33H13.5444C13.0982 19.7218 12.7037 20.1709 12.3723 20.6659H23.7056C23.8948 20.9486 24.0635 21.2462 24.2095 21.5567H20.1914ZM11.2567 23.784H14.4931C14.4525 24.0006 14.4313 24.224 14.4313 24.4524C14.4313 24.6804 14.4524 24.9035 14.4929 25.1199H11.2566C11.2353 24.9003 11.2244 24.6776 11.2244 24.4524C11.2244 24.2268 11.2353 24.0039 11.2567 23.784ZM11.4034 26.0107H14.7842C15.0385 26.5408 15.4185 26.9991 15.8855 27.3471H11.868C11.669 26.9237 11.5123 26.4764 11.4034 26.0107ZM18.039 31.267C16.8784 31.267 15.7856 30.9769 14.8291 30.4652H21.2489C20.2924 30.9769 19.1996 31.267 18.039 31.267ZM14.8297 18.4392H21.2483C20.292 17.9277 19.1994 17.6377 18.039 17.6377C16.8787 17.6377 15.7861 17.9277 14.8297 18.4392ZM28.4616 20.8447C26.4691 20.8447 24.8538 22.46 24.8538 24.4525C24.8538 26.445 26.4691 28.0602 28.4616 28.0602C30.4541 28.0602 32.0694 26.445 32.0694 24.4525C32.0694 22.46 30.4541 20.8447 28.4616 20.8447Z" fill="url(#paint1_linear_553_11987)"/>
</g>
<defs>
<linearGradient id="paint0_linear_553_11987" x1="10.8234" y1="8.81908" x2="37.2803" y2="39.2846" gradientUnits="userSpaceOnUse">
<stop stop-color="#FFB58C"/>
<stop offset="1" stop-color="#4F6BFF"/>
</linearGradient>
<linearGradient id="paint1_linear_553_11987" x1="12.0261" y1="17.6377" x2="23.8878" y2="37.2645" gradientUnits="userSpaceOnUse">
<stop stop-color="#FAB391"/>
<stop offset="1" stop-color="#5F69FF"/>
</linearGradient>
</defs>
</svg>
