<svg width="312" height="312" viewBox="0 0 312 312" fill="none" xmlns="http://www.w3.org/2000/svg">
<path d="M0 36C0 16.1178 16.1178 0 36 0H276C295.882 0 312 16.1178 312 36V276C312 295.882 295.882 312 276 312H36C16.1178 312 0 295.882 0 276V36Z" fill="currentColor"/>
<path d="M193.828 67.3796L236.05 33.6018L252.939 75.824L193.828 67.3796Z" fill="white"/>
<path d="M252.94 75.8243L236.051 33.6021L278.273 67.3798L252.94 75.8243Z" fill="#96D3FF"/>
<path d="M252.94 75.824L236.051 109.602L278.273 67.3796L252.94 75.824Z" fill="#497BB5"/>
<path d="M193.829 67.3796L236.051 109.602L252.94 75.824L193.829 67.3796Z" fill="#C4DBFE"/>
<path d="M57 260.84V80.3549H127.257C139.991 80.3549 150.98 82.9988 160.226 88.2864C169.527 93.5153 176.697 100.83 181.735 110.23C186.773 119.572 189.292 130.441 189.292 142.837C189.292 155.293 186.718 166.191 181.569 175.533C176.476 184.816 169.195 192.013 159.728 197.124C150.261 202.235 139.022 204.791 126.011 204.791H97.6612V170.421H118.371C124.572 170.421 129.748 169.276 133.901 166.984C138.108 164.693 141.292 161.491 143.451 157.378C145.61 153.207 146.69 148.36 146.69 142.837C146.69 137.256 145.61 132.438 143.451 128.384C141.292 124.272 138.108 121.099 133.901 118.867C129.693 116.634 124.516 115.518 118.371 115.518H98.1078V260.84H57Z" fill="#8CCFFF"/>
<path d="M255.334 143.662V260.84H214.226V170.598V143.662H255.334Z" fill="#8CCFFF"/>
</svg>
