<svg width="312" height="335" viewBox="0 0 312 335" fill="none" xmlns="http://www.w3.org/2000/svg">
<path d="M134.347 163.526C138.126 167.306 135.45 173.769 130.104 173.769H79V108.18L134.347 163.526Z" fill="#4F9560"/>
<path d="M56.3529 107.318C61.3158 100.457 71.1596 100.347 77.1478 106.335L79.9994 109.187V173.79H49.1742C40.6959 173.79 33.8122 166.738 35.1722 158.369C38.1078 140.306 45.1678 122.783 56.3529 107.318Z" fill="#4F9560"/>
<path d="M150.507 150.754C150.507 156.1 144.045 158.777 140.265 154.997L104.129 118.861L150.507 72.4824V150.754Z" fill="#4F9560"/>
<path d="M135.102 55.8598C143.464 54.517 150.502 61.4001 150.502 69.8686V73.9013L104.82 119.583L83.0235 97.7862C77.0286 91.7911 77.1478 81.9368 84.0268 76.9811C98.8752 66.2844 116.258 58.8861 135.102 55.8598Z" fill="#4F9560"/>
<path d="M173.265 154.347C169.485 158.126 163.022 155.45 163.022 150.104L163.022 99L228.611 99L173.265 154.347Z" fill="#4F9560"/>
<path d="M229.473 76.3531C236.335 81.316 236.444 91.1598 230.456 97.148L227.605 99.9996L163.001 99.9996L163.001 69.1744C163.001 60.6962 170.054 53.8124 178.422 55.1725C196.485 58.1081 214.008 65.1681 229.473 76.3531Z" fill="#4F9560"/>
<path d="M182.509 172.507C177.164 172.507 174.487 166.045 178.267 162.265L214.403 126.129L260.781 172.507L182.509 172.507Z" fill="#4F9560"/>
<path d="M277.404 157.102C278.746 165.464 271.863 172.502 263.395 172.502L259.362 172.502L213.681 126.82L235.477 105.023C241.472 99.0286 251.327 99.1478 256.282 106.027C266.979 120.875 274.377 138.258 277.404 157.102Z" fill="#4F9560"/>
<path d="M178.77 193.265C174.99 189.485 177.666 183.022 183.012 183.022L234.116 183.022L234.116 248.611L178.77 193.265Z" fill="#4F9560"/>
<path d="M256.763 249.473C251.8 256.334 241.957 256.444 235.968 250.456L233.117 247.604L233.117 183.001L263.942 183.001C272.42 183.001 279.304 190.053 277.944 198.422C275.008 216.485 267.948 234.008 256.763 249.473Z" fill="#4F9560"/>
<path d="M161.757 202.509C161.757 197.164 168.219 194.487 171.999 198.267L208.135 234.403L161.757 280.781L161.757 202.509Z" fill="#4F9560"/>
<path d="M177.161 297.404C168.8 298.747 161.762 291.864 161.762 283.395L161.762 279.362L207.443 233.681L229.24 255.477C235.235 261.473 235.116 271.327 228.237 276.283C213.388 286.979 196.006 294.378 177.161 297.404Z" fill="#4F9560"/>
<path d="M141.526 198.77C145.306 194.99 151.769 197.666 151.769 203.012L151.769 254.116L86.1797 254.116L141.526 198.77Z" fill="#4F9560"/>
<path d="M85.3182 276.763C78.4563 271.8 78.3467 261.956 84.3348 255.968L87.1864 253.117L151.79 253.117L151.79 283.942C151.79 292.42 144.737 299.304 136.369 297.944C118.306 295.008 100.783 287.948 85.3182 276.763Z" fill="#4F9560"/>
<path d="M129.754 182.757C135.1 182.757 137.777 189.219 133.997 192.999L97.8607 229.135L51.4824 182.757L129.754 182.757Z" fill="#4F9560"/>
<path d="M34.86 198.162C33.5172 189.8 40.4003 182.762 48.8689 182.762L52.9016 182.762L98.5832 228.444L76.7864 250.24C70.7913 256.235 60.9371 256.116 55.9813 249.237C45.2846 234.389 37.8863 217.006 34.86 198.162Z" fill="#4F9560"/>
<path d="M156 28.5C236.796 28.5 302.5 94.8713 302.5 177C302.5 259.129 236.796 325.5 156 325.5C75.204 325.5 9.5 259.129 9.5 177C9.5 94.8713 75.204 28.5 156 28.5Z" stroke="#4F9560" stroke-width="19"/>
<path d="M139.126 8.70601C131.379 18.6671 132.126 18.7061 133.126 23.206C86.6269 28.7059 48.6254 63.7061 54.6254 57.7061C60.6254 51.7061 122.061 3.10049 123.626 2.206C127.126 0.205837 146.126 -0.294093 139.126 8.70601Z" fill="#4F9560" stroke="#4F9560"/>
</svg>
