<svg width="40" height="28" viewBox="0 0 40 28" fill="none" xmlns="http://www.w3.org/2000/svg"><path fill-rule="evenodd" clip-rule="evenodd" d="M27.9306 5.77054C27.9306 2.64882 25.4 0.118164 22.2782 0.118164H19.6548V21.2312H11.8842C9.12978 21.2312 6.89689 18.9983 6.89689 16.2439C6.89689 13.4895 9.12979 11.2566 11.8842 11.2566H16.5516V4.60819H11.6371C5.21009 4.60819 0 9.81827 0 16.2452C0 22.6722 5.21008 27.8823 11.637 27.8823H23.4302C25.9159 27.8823 27.9309 25.8672 27.9309 23.3816V12.9204H27.9306V5.77054ZM31.2162 9.47872C30.892 9.65236 30.6897 9.99026 30.6897 10.358V19.4706C30.6897 19.8383 30.892 20.1762 31.2162 20.3499L38.5315 24.2685C39.196 24.6245 40 24.143 40 23.3892V6.43934C40 5.68552 39.196 5.20412 38.5315 5.56007L31.2162 9.47872Z" fill="url(#paint0_linear_717_7189)"/><defs><linearGradient id="paint0_linear_717_7189" x1="30.0001" y1="29.5863" x2="7.36991" y2="-1.80714" gradientUnits="userSpaceOnUse"><stop stop-color="#FF678B"/><stop offset="0.491831" stop-color="#7C3AED"/><stop offset="1" stop-color="#2B33F5"/></linearGradient></defs></svg>