<svg width="32" height="32" xmlns="http://www.w3.org/2000/svg">
  <defs>
    <linearGradient x1="0%" y1="0%" x2="100%" y2="100%" id="linearGradient-1">
      <stop stop-color="#02C2FF" offset="0%"></stop>
      <stop stop-color="#155EEF" offset="100%"></stop>
    </linearGradient>
  </defs>
  <g fill="none" fill-rule="evenodd">
    <path
      d="M21.333 0C27.224 0 32 4.776 32 10.667c0 1.943-.52 3.764-1.427 5.333A10.612 10.612 0 0132 21.333C32 27.224 27.224 32 21.333 32c-1.942 0-3.764-.52-5.333-1.427A10.62 10.62 0 0110.667 32C4.776 32 0 27.224 0 21.333 0 19.391.52 17.57 1.427 16A10.62 10.62 0 010 10.667C0 4.776 4.776 0 10.667 0 12.61 0 14.43.52 16 1.427A10.612 10.612 0 0121.333 0z"
      fill="url(#linearGradient-1)" />
    <path
      d="M13.666 5.333h-.623a1.583 1.583 0 00-1.591 1.586v.647l-.637.106a3.808 3.808 0 00-3.142 3.31 8.622 8.622 0 012.259-.315v1.524c-.91-.002-1.83.074-2.667.488l-.102.062a3.81 3.81 0 00-.602 6.059 3.805 3.805 0 013.37-2.039v1.524a2.283 2.283 0 00-2.28 2.2l-.002.086a3.81 3.81 0 003.172 3.757l.641.106v.64c0 .875.706 1.587 1.581 1.593h.625a1.599 1.599 0 001.591-1.594v-7.55a2.285 2.285 0 00-2.285-2.286v-1.524c.857 0 1.649.286 2.285.762V6.917a1.593 1.593 0 00-1.447-1.577l-.146-.007zm5.335 0h-.624a1.593 1.593 0 00-1.598 1.586v7.558a3.786 3.786 0 012.281-.764v1.524a2.283 2.283 0 00-2.28 2.288v7.548a1.6 1.6 0 001.597 1.593H19a1.592 1.592 0 001.581-1.593v-.64l.641-.105a3.809 3.809 0 003.165-3.757l-.004-.133a2.284 2.284 0 00-2.28-2.153V16.76c1.406 0 2.696.776 3.359 2.014a3.81 3.81 0 00-.653-6.05c-.818-.382-1.794-.532-2.706-.534v-1.524a8.657 8.657 0 012.255.294 3.808 3.808 0 00-3.144-3.289l-.633-.106V6.92c0-.826-.63-1.505-1.437-1.579l-.144-.007z"
      fill="#FFF" fill-rule="nonzero" />
  </g>
</svg>