<?xml version="1.0" encoding="UTF-8"?>
<svg width="100px" height="100px" viewBox="0 0 100 100" version="1.1" xmlns="http://www.w3.org/2000/svg" xmlns:xlink="http://www.w3.org/1999/xlink">
    <title>浏览器logo</title>
    <defs>
        <linearGradient x1="19.5303336%" y1="100%" x2="65.5547049%" y2="7.29449307%" id="linearGradient-1">
            <stop stop-color="#117BFF" offset="0%"></stop>
            <stop stop-color="#4133FF" offset="50.191215%"></stop>
            <stop stop-color="#8527FF" offset="100%"></stop>
        </linearGradient>
    </defs>
    <g id="页面-1" stroke="none" stroke-width="1" fill="none" fill-rule="evenodd">
        <g id="浏览器logo" fill="url(#linearGradient-1)">
            <path d="M15.3488372,16.1627907 C15.3488372,3.13953488 34.8837209,3.13953488 34.8837209,16.1627907 C34.8837209,16.1627907 34.8837209,39.0697674 34.8837209,39.0697674 C34.8837209,45.2325581 44.1860465,45.2325581 44.1860465,39.0697674 C44.1860465,39.0697674 44.1860465,31.8604651 44.1860465,31.8604651 C44.1860465,18.8372093 63.7209302,18.8372093 63.7209302,31.8604651 C63.7209302,31.8604651 63.7209302,68.1395349 63.7209302,68.1395349 C63.7209302,81.1627907 44.1860465,81.1627907 44.1860465,68.1395349 C44.1860465,68.1395349 44.1860465,66.9767442 44.1860465,66.9767442 C44.1860465,60.8139535 34.8837209,60.8139535 34.8837209,66.9767442 C34.8837209,66.9767442 34.8837209,83.8372093 34.8837209,83.8372093 C34.8837209,96.8604651 15.3488372,96.8604651 15.3488372,83.8372093 C15.3488372,83.8372093 15.3488372,16.1627907 15.3488372,16.1627907 Z M71.627907,46.9767442 C71.627907,34.5348837 90.2325581,34.5348837 90.2325581,46.9767442 C90.2325581,46.9767442 90.2325581,52.7906977 90.2325581,52.7906977 C90.2325581,65.2325581 71.627907,65.2325581 71.627907,52.7906977 C71.627907,52.7906977 71.627907,46.9767442 71.627907,46.9767442 Z" id="形状结合"></path>
        </g>
    </g>
</svg>