<svg width="54" height="54" viewBox="0 0 54 54" fill="none" xmlns="http://www.w3.org/2000/svg">
<path d="M32.9314 26.9511L21.7996 20.5242L32.4531 14.9257L42.8674 32.9639L32.4531 38.9766L32.9314 26.9511Z" fill="url(#paint0_linear_14267_83603)"/>
<path d="M21.8015 20.5187L21.8015 33.3726L11.6264 26.9457L22.0407 8.90756L32.455 14.9203L21.8015 20.5187Z" fill="url(#paint1_linear_14267_83603)"/>
<path d="M11.6249 26.9477L21.8 33.3747L27.3659 30.1612L32.9318 26.9477L32.4535 38.9731L11.6249 38.9731L11.6249 26.9477Z" fill="url(#paint2_linear_14267_83603)"/>
<path d="M17.0052 5.99971C14.6088 4.61614 11.6133 6.34561 11.6133 9.11277L11.6133 26.9375L22.0276 8.89937L17.0052 5.99971Z" fill="#F4DBFF"/>
<path d="M47.8817 30.0613C50.2782 28.6777 50.2782 25.2188 47.8817 23.8352L32.4451 14.9228L42.8594 32.9609L47.8817 30.0613Z" fill="#FFDBF6"/>
<path d="M11.6164 44.7588C11.6164 47.526 14.6119 49.2555 17.0083 47.8719L32.445 38.9595L11.6164 38.9595L11.6164 44.7588Z" fill="#FFE9CD"/>
<defs>
<linearGradient id="paint0_linear_14267_83603" x1="38.2931" y1="34.987" x2="39.9981" y2="18.0469" gradientUnits="userSpaceOnUse">
<stop stop-color="#7333F0"/>
<stop offset="1" stop-color="#F034D0"/>
</linearGradient>
<linearGradient id="paint1_linear_14267_83603" x1="26.9397" y1="11.8049" x2="11.9028" y2="25.1964" gradientUnits="userSpaceOnUse">
<stop stop-color="#FF5753"/>
<stop offset="1" stop-color="#FFA52D"/>
</linearGradient>
<linearGradient id="paint2_linear_14267_83603" x1="11.3626" y1="33.824" x2="31.1696" y2="38.3227" gradientUnits="userSpaceOnUse">
<stop stop-color="#FF5753"/>
<stop offset="1" stop-color="#F034D0"/>
</linearGradient>
</defs>
</svg>
