<svg width="121" height="120" viewBox="0 0 121 120" fill="none" xmlns="http://www.w3.org/2000/svg">
<path d="M71.4987 120H48.7719C35.358 120 23.1684 114.526 14.3239 105.708C5.48603 96.8904 0 84.7215 0 71.3377V48.6621C0 35.2783 5.48603 23.1161 14.3239 14.2915C23.1617 5.4736 35.358 0 48.7719 0H71.4987C83.8422 0 95.1554 4.63917 103.772 12.2556C113.875 21.187 120.271 34.217 120.271 48.6621V71.3377C120.271 84.5546 114.919 96.5833 106.275 105.375C97.4034 114.393 85.0732 120 71.4987 120Z" fill="white"/>
<path d="M71.4987 120H48.7719C35.358 120 23.1684 114.526 14.3239 105.708C5.48603 96.8904 0 84.7215 0 71.3377V48.6621C0 35.2783 5.48603 23.1161 14.3239 14.2915C23.1617 5.4736 35.358 0 48.7719 0H71.4987C83.8422 0 95.1554 4.63917 103.772 12.2556C113.875 21.187 120.271 34.217 120.271 48.6621V71.3377C120.271 84.5546 114.919 96.5833 106.275 105.375C97.4034 114.393 85.0732 120 71.4987 120Z" fill="url(#paint0_linear_1016_19684)"/>
<path d="M71.4987 119.25H48.7719C35.5662 119.25 23.5644 113.862 14.8536 105.177C6.14968 96.493 0.75 84.5125 0.75 71.3377V48.6621C0.75 35.4876 6.14949 23.5136 14.8536 14.8225C23.5575 6.13812 35.5659 0.75 48.7719 0.75H71.4987C83.6509 0.75 94.7895 5.31667 103.276 12.8175C113.226 21.6141 119.521 34.4431 119.521 48.6621V71.3377C119.521 84.3481 114.253 96.1906 105.74 104.849C97.0028 113.73 84.8626 119.25 71.4987 119.25Z" stroke="#161823" stroke-opacity="0.03" stroke-width="1.5"/>
<path d="M69.4406 69.5088C69.2934 69.6557 69.1462 69.8026 68.999 69.9428C67.2529 71.6383 65.4264 73.1268 63.5799 74.3951C60.6429 76.411 57.6524 77.8662 54.8291 78.7006C51.8988 79.5684 49.149 79.762 46.8342 79.2079C45.2687 78.8341 43.9106 78.1199 42.8268 77.0385C41.7429 75.9571 41.0271 74.602 40.6524 73.04C42.4989 73.4806 44.6265 73.4473 46.9012 72.9667C47.2424 72.8933 47.5902 72.8131 47.9381 72.7263C50.6878 72.0121 53.6182 70.6836 56.5151 68.8079C55.5717 67.9602 54.6418 67.0791 53.7252 66.1646C52.8086 65.2501 51.9256 64.3223 51.0759 63.3744C50.9488 63.2342 50.8283 63.0941 50.7012 62.9606C48.7811 60.8045 47.035 58.5816 45.4762 56.3387C46.7473 54.4963 48.2392 52.6741 49.9385 50.9319C50.0857 50.785 50.2262 50.6381 50.3734 50.4912C50.5206 50.3444 50.6678 50.1976 50.815 50.0574C50.9688 49.9105 51.116 49.7636 51.2699 49.6234C51.3301 49.7169 51.397 49.8037 51.4572 49.8972C53.0093 52.1534 54.7421 54.3829 56.6622 56.559C56.7358 56.6391 56.8094 56.7258 56.883 56.8059C57.8464 57.8873 58.8566 58.962 59.907 60.01C60.9574 61.0581 62.0278 62.066 63.1117 63.0272C63.1919 63.1007 63.2789 63.1742 63.3592 63.2476C63.3592 63.2476 63.3592 63.2476 63.3592 63.2409C65.5201 61.0715 67.3599 58.7751 68.8452 56.4588C70.8991 53.2547 72.284 50.0173 72.9062 47.0335C73.3812 44.7639 73.4213 42.6412 72.9798 40.7988C72.7858 39.9911 72.5047 39.2436 72.1234 38.556C71.7688 37.9152 71.334 37.3277 70.8054 36.8004C67.2262 33.2292 60.5693 33.6431 53.7185 37.2344C53.6851 37.1676 53.6449 37.0941 53.6114 37.0274C51.2765 38.3891 48.9818 40.0313 46.7941 41.9204H46.7874C46.0582 42.5478 45.3423 43.2087 44.6332 43.8962C44.486 44.0431 44.3388 44.1832 44.1916 44.33C44.0444 44.4769 43.8972 44.6238 43.7567 44.7707C42.6595 45.8921 41.6359 47.0469 40.6859 48.2284C38.5852 50.8317 36.8457 53.5484 35.4809 56.2986C31.2727 64.7494 30.6104 73.4472 34.0091 79.6818C32.7178 78.9809 31.5269 78.1065 30.4699 77.0452C23.5589 70.1497 24.2948 57.7004 31.3797 46.446C32.9988 43.8761 34.9456 41.3662 37.2069 38.9965C37.4745 38.7162 37.7489 38.4358 38.0232 38.1621C39.7894 36.3999 41.6426 34.818 43.5427 33.4229C43.5427 33.4229 43.5427 33.4228 43.5494 33.4162C45.7638 31.7874 48.0518 30.4122 50.3533 29.2975C60.4756 24.3979 70.9058 24.538 77.0006 30.6191C78.0577 31.6738 78.9341 32.862 79.6365 34.1503C80.3925 35.5388 80.9478 37.0474 81.3091 38.6494C81.9447 41.4664 81.9715 44.577 81.4229 47.8011C80.6401 52.4003 78.6999 57.2465 75.6759 61.8658C75.6357 61.8391 75.5956 61.8124 75.5555 61.7791C74.1572 64.0954 72.4044 66.405 70.3237 68.6011C70.1765 68.7546 70.0361 68.9014 69.8889 69.055C69.7283 69.2152 69.5878 69.362 69.4406 69.5088Z" fill="black"/>
<path d="M81.7969 81.8431C81.5226 82.1168 81.2416 82.3904 80.9606 82.6574C78.5856 84.9136 76.0701 86.8629 73.4944 88.4717C62.2079 95.534 49.7372 96.2749 42.8262 89.3794C41.7692 88.3247 40.8928 87.1365 40.1836 85.8482C46.4256 89.2392 55.1497 88.5717 63.6129 84.3797C66.3693 83.0179 69.0922 81.2757 71.7014 79.1864C72.8855 78.2385 74.043 77.2173 75.1669 76.1159C75.3141 75.969 75.4613 75.8287 75.6084 75.6819C75.7556 75.535 75.9028 75.3882 76.0433 75.2414C76.7324 74.5405 77.388 73.8196 78.0236 73.092C79.917 70.9025 81.5561 68.6196 82.9276 66.29C88.3534 57.0649 89.5442 47.2055 85.7977 40.3301C87.0889 41.031 88.2798 41.9054 89.3369 42.9667C95.4317 49.0478 95.5788 59.4545 90.6615 69.5541C89.5442 71.8504 88.1661 74.1332 86.5337 76.3427C85.1488 78.2318 83.5632 80.0808 81.7969 81.8431Z" fill="black"/>
<defs>
<linearGradient id="paint0_linear_1016_19684" x1="8.36282" y1="-27.3683" x2="170.303" y2="32.521" gradientUnits="userSpaceOnUse">
<stop stop-color="white"/>
<stop offset="0.276391" stop-color="#E4F0FF" stop-opacity="0.9087"/>
<stop offset="0.474888" stop-color="#D4E5FF" stop-opacity="0.875956"/>
<stop offset="0.703159" stop-color="white" stop-opacity="0.8383"/>
<stop offset="1" stop-color="#BEDCFF" stop-opacity="0.78"/>
</linearGradient>
</defs>
</svg>
