<svg xmlns="http://www.w3.org/2000/svg" xmlns:xlink="http://www.w3.org/1999/xlink" width="760" height="760" viewBox="0 0 760 760" fill="none">
<circle cx="380" cy="380" r="380"   fill="url(#linear_fill_25_260)" >
</circle>
<path d="M304.599 623.913L282.9 676.296L245.944 660.988L326.368 466.832L220.699 572.501L192.415 544.217L298.088 438.544L114.003 514.796L98.6953 477.84L282.786 401.586L133.329 401.586L133.329 361.586L282.773 361.586L79.9996 277.593L95.3076 240.637L162.577 268.501L147.269 305.456L185.276 321.199L200.584 284.244L298.095 324.636L192.41 218.951L220.694 190.667L326.376 296.349L256.719 128.185L293.675 112.877L363.329 281.034L363.329 131.586L403.329 131.586L403.329 281.035L447.584 174.196L484.539 189.504L500.718 150.446L463.763 135.139L484.945 84.0006L521.901 99.3086L440.283 296.35L590.188 146.444L618.472 174.729L468.571 324.63L606.644 267.436L621.952 304.393L483.878 361.586L595.329 361.586L595.329 401.586L483.865 401.586L621.964 458.789L606.656 495.745L468.578 438.55L621.467 591.44L593.183 619.724L440.291 466.831L497.487 604.913L460.531 620.221L403.329 482.126L403.329 631.586L363.329 631.586L363.329 482.128L323.267 578.845L286.312 563.538L267.644 608.605L304.599 623.913ZM383.001 437.001C413.377 437.001 438.001 412.377 438.001 382.001C438.001 351.625 413.377 327.001 383.001 327.001C352.625 327.001 328.001 351.625 328.001 382.001C328.001 412.377 352.625 437.001 383.001 437.001ZM642.329 361.586L642.329 401.586L717.329 401.586L717.329 361.586L642.329 361.586Z" fill-rule="evenodd"  fill="#FFFFFF" >
</path>
<defs>
<linearGradient id="linear_fill_25_260" x1="112.92975802891088" y1="20.11394109976854" x2="777.0406193141805" y2="681.6622944043405" gradientUnits="userSpaceOnUse">
<stop offset="0" stop-color="#9013FE"  />
<stop offset="1" stop-color="#6711F2"  />
</linearGradient>
</defs>
</svg>
